<?xml version="1.0" encoding="UTF-8"?>
<svg id="Ebene_2" data-name="Ebene 2" xmlns="http://www.w3.org/2000/svg" viewBox="0 0 692.93 995.41">
  <defs>
    <style>
      .cls-1 {
        fill: #4697ff;
      }
    </style>
  </defs>
  <g id="Ebene_1-2" data-name="Ebene 1">
    <rect class="cls-1" x="97.23" y="688.3" width="498.48" height="60.19"/>
    <rect class="cls-1" x="310.2" width="75.62" height="55.56"/>
    <rect class="cls-1" x="319.46" y="777.81" width="55.56" height="188.28"/>
    <polygon class="cls-1" points="581.79 995.41 526.23 995.41 434.58 777.81 490.14 777.81 581.79 995.41"/>
    <polygon class="cls-1" points="112.69 995.41 168.25 995.41 259.89 777.81 204.34 777.81 112.69 995.41"/>
    <g>
      <path class="cls-1" d="M692.93,55.56H0v604.96h259.89v-177.78l-77.45-77.45v-61.05c-23.18-5.86-40.33-26.85-40.33-51.85,0-29.54,23.94-53.48,53.48-53.48s53.48,23.94,53.48,53.48c0,23.97-15.78,44.26-37.51,51.05v49.79l48.34,48.34,29.11,29.11v189.83h41.31l.83-426.98c-22.06-6.59-38.15-27.03-38.15-51.24,0-29.54,23.94-53.48,53.48-53.48s53.48,23.94,53.48,53.48c0,24.77-16.85,45.6-39.7,51.68l-.83,366.38,41.29-41.29v-163.83l29.11-29.1,38.43-38.43,18.93-18.93v-32.52c-24.67-4.75-43.31-26.44-43.31-52.5,0-29.54,23.94-53.48,53.48-53.48s53.48,23.94,53.48,53.48c0,22.86-14.35,42.37-34.54,50.02v47.21l-29.11,29.11v-.16l-18.93,18.93-38.43,38.42v163.83l-70.4,70.4v18.99h333.52V55.56Z"/>
      <polygon class="cls-1" points="487.17 349.95 487.17 350.1 516.29 320.99 516.29 320.83 497.35 339.77 487.17 349.95"/>
      <circle class="cls-1" cx="497.35" cy="223.76" r="27.77" transform="translate(-29.42 82.56) rotate(-9.22)"/>
      <path class="cls-1" d="M373.51,182.3c0-15.34-12.43-27.77-27.77-27.77s-27.77,12.43-27.77,27.77c0,10.4,5.72,19.45,14.18,24.2h27.16c8.46-4.76,14.18-13.81,14.18-24.2Z"/>
      <path class="cls-1" d="M345.75,210.07c4.94,0,9.56-1.3,13.58-3.56h-27.16c4.02,2.26,8.64,3.56,13.58,3.56Z"/>
      <path class="cls-1" d="M223.35,292.4c0-15.34-12.43-27.77-27.77-27.77s-27.77,12.43-27.77,27.77c0,10.81,6.19,20.16,15.21,24.74h25.11c9.02-4.59,15.21-13.93,15.21-24.74Z"/>
      <path class="cls-1" d="M195.58,320.16c4.52,0,8.78-1.1,12.55-3.02h-25.11c3.77,1.92,8.03,3.02,12.55,3.02Z"/>
    </g>
  </g>
</svg>